<svg xmlns="http://www.w3.org/2000/svg" version="1.1" xmlns:xlink="http://www.w3.org/1999/xlink" xmlns:svgjs="http://svgjs.dev/svgjs" width="1500" height="1500" viewBox="0 0 1500 1500"><rect width="1500" height="1500" fill="#929395"></rect><g transform="matrix(0.6666666666666666,0,0,0.6666666666666666,249.39393939393938,526.7971712118491)"><svg viewBox="0 0 396 177" data-background-color="#929395" preserveAspectRatio="xMidYMid meet" height="670" width="1500" xmlns="http://www.w3.org/2000/svg" xmlns:xlink="http://www.w3.org/1999/xlink"><g id="tight-bounds" transform="matrix(1,0,0,1,0.2400000000000091,-0.051714860814826125)"><svg viewBox="0 0 395.52 177.10342972162965" height="177.10342972162965" width="395.52"><g><svg viewBox="0 0 395.52 177.10342972162965" height="177.10342972162965" width="395.52"><g><svg viewBox="0 0 395.52 177.10342972162965" height="177.10342972162965" width="395.52"><g id="textblocktransform"><svg viewBox="0 0 395.52 177.10342972162965" height="177.10342972162965" width="395.52" id="textblock"><g><svg viewBox="0 0 395.52 120.13055910085393" height="120.13055910085393" width="395.52"><rect width="395.52" height="120.13055910085393" x="0" y="0" opacity="1" fill="#375a82" data-fill-palette-color="tertiary"></rect><g transform="matrix(1,0,0,1,23.461705032,23.461705032)"><svg width="348.596589936" viewBox="4 -38.7 186.88 39.25" height="73.20714903685393" data-palette-color="#929395"><path d="M12.95-13.3L12.95-13.3 10.1-13.3 10.1-13 10.7 0 4 0 4.6-12.15 4-34.5 14.85-34.5Q19.65-34.5 22.5-31.9 25.35-29.3 25.35-25L25.35-25Q25.35-21.75 23.68-19.07 22-16.4 19.15-14.85L19.15-14.85 27.85-2.55 21.8 0.55 14-13.35Q13.65-13.3 12.95-13.3ZM13.05-29.45L13.05-29.45 10.6-29.45 10.25-18.15 13.65-18.15Q16.15-18.15 17.53-19.8 18.9-21.45 18.9-24.5L18.9-24.5Q18.9-29.45 13.05-29.45ZM40.85-5.1L40.85-5.1Q42.3-5.1 43.9-5.85 45.5-6.6 46.4-7.35L46.4-7.35 47.3-8.1 49.6-5.3Q49.1-4.45 48.05-3.35 47-2.25 45.92-1.48 44.85-0.7 43.07-0.08 41.3 0.55 39.4 0.55L39.4 0.55Q35.35 0.55 32.8-2.53 30.25-5.6 30.25-10.45L30.25-10.45Q30.25-16.55 33.8-21.15 37.35-25.75 42.1-25.75L42.1-25.75Q45.75-25.75 47.77-23.7 49.8-21.65 49.8-17.95L49.8-17.95Q49.8-15.75 49.05-12.95L49.05-12.95 48.05-11.9 35.55-10.75Q36.4-5.1 40.85-5.1ZM40.85-20.6L40.85-20.6Q38.65-20.6 37.15-18.82 35.65-17.05 35.4-14.3L35.4-14.3 43.9-15.35Q44.05-16.5 44.05-17.25L44.05-17.25Q44.05-20.6 40.85-20.6ZM68.65-12.65Q68.65-16.1 68.05-17.25 67.45-18.4 65.25-18.4 63.05-18.4 60.25-16.65L60.25-16.65 60.25-13 60.8-1.25 54.1 0 54.7-12.15Q54.5-18.85 53.6-24.15L53.6-24.15 59.65-25.45Q60-22.55 60.15-19.8L60.15-19.8Q60.9-20.8 61.85-21.78 62.8-22.75 64.84-23.98 66.9-25.2 69.17-25.2 71.45-25.2 73-23.43 74.55-21.65 74.55-18.6L74.55-18.6 74.25-13 74.8-1 68.05 0.25 68.65-12.65ZM79.34-24.2L82.24-24.2 82.24-29.65 88.99-30.95 88.34-24.2 94.39-24.2 93.84-20.1 88.14-20.1 87.89-9.65Q87.89-7.3 88.34-6.53 88.79-5.75 89.99-5.75 91.19-5.75 93.19-6.3L93.19-6.3 93.49-2.75Q90.19 0 87.69 0 85.19 0 83.59-1.83 81.99-3.65 81.99-6.6L81.99-6.6 82.29-12.2 82.24-20.1 78.79-20.1 79.34-24.2ZM127.04-3.3L121.34 0.5 111.94-13.35 111.94-13 112.49-1.25 105.74 0 106.34-12.15 105.74-37.45 112.59-38.7 111.94-14.55 121.94-25.5 126.64-22.3 117.89-14.1 127.04-3.3ZM134.84 0Q131.89 0 130.01-1.88 128.14-3.75 128.14-6.93 128.14-10.1 131.04-12.43 133.94-14.75 138.09-14.75L138.09-14.75 141.49-14.75 141.49-15.6Q141.49-18.05 140.49-18.95 139.49-19.85 136.74-19.85L136.74-19.85Q135.59-19.85 134.01-19.38 132.44-18.9 130.49-17.9L130.49-17.9 129.04-21.85Q131.19-23.35 134.26-24.55 137.34-25.75 139.34-25.75L139.34-25.75Q147.19-25.75 147.19-18.15L147.19-18.15 147.19-8.35Q147.19-5.55 148.94-2.1L148.94-2.1 143.64 0.15Q142.39-2.25 141.79-4.15L141.79-4.15Q139.04 0 134.84 0L134.84 0ZM136.94-5.1L136.94-5.1Q138.94-5.1 141.49-7.15L141.49-7.15 141.49-10.5Q138.84-11.1 137.19-11.1L137.19-11.1Q134.04-11.1 134.04-8.3L134.04-8.3Q134.04-6.85 134.84-5.98 135.64-5.1 136.94-5.1ZM152.73-24.15L152.73-24.15 158.78-25.45Q159.23-21.6 159.38-18.15L159.38-18.15Q163.93-25.2 167.93-25.2L167.93-25.2 167.38-17.4Q164.48-17.4 162.81-16.88 161.13-16.35 159.38-14.8L159.38-14.8 159.38-13 159.93-1.25 153.23 0 153.83-12.15Q153.63-18.85 152.73-24.15ZM169.58-10.45Q169.58-16.85 173.03-21.3 176.48-25.75 181.11-25.75 185.73-25.75 188.31-22.75 190.88-19.75 190.88-14.8L190.88-14.8Q190.88-8.2 187.56-3.83 184.23 0.55 179.18 0.55L179.18 0.55Q175.03 0.55 172.31-2.58 169.58-5.7 169.58-10.45L169.58-10.45ZM185.28-12.2L185.28-12.2Q185.28-19.45 180.33-19.45L180.33-19.45Q175.18-19.45 175.18-12.65L175.18-12.65Q175.18-9.1 176.63-7.1 178.08-5.1 180.46-5.1 182.83-5.1 184.06-6.93 185.28-8.75 185.28-12.2Z" opacity="1" transform="matrix(1,0,0,1,0,0)" fill="#929395" class="wordmark-text-0" data-fill-palette-color="quaternary" id="text-0"></path></svg></g></svg></g><g transform="matrix(1,0,0,1,0,131.86141161685393)"><svg viewBox="0 0 395.52 45.24201810477573" height="45.24201810477573" width="395.52"><g transform="matrix(1,0,0,1,0,0)"><svg width="395.52" viewBox="4 -35.5 397.85 45.51" height="45.24201810477573" data-palette-color="#375a82"><path d="M23.71-8.59L23.71-8.59Q23.71-6.81 23.03-5.25 22.36-3.69 21.19-2.51 20.02-1.34 18.44-0.67 16.87 0 15.09 0L15.09 0 4 0 4-35.01 15.09-35.01Q16.87-35.01 18.44-34.34 20.02-33.67 21.19-32.5 22.36-31.32 23.03-29.75 23.71-28.17 23.71-26.39L23.71-26.39 23.71-26.05Q23.71-24.8 23.38-23.67 23.05-22.53 22.44-21.56 21.83-20.58 21-19.79 20.17-18.99 19.14-18.46L19.14-18.46Q20.17-17.92 21-17.13 21.83-16.33 22.44-15.34 23.05-14.36 23.38-13.22 23.71-12.08 23.71-10.84L23.71-10.84 23.71-8.59ZM20.56-8.59L20.56-11.35Q20.56-12.52 20.12-13.54 19.68-14.55 18.91-15.31 18.14-16.06 17.13-16.5 16.11-16.94 14.94-16.94L14.94-16.94 7.15-16.94 7.15-3 14.94-3Q16.11-3 17.13-3.44 18.14-3.88 18.91-4.64 19.68-5.4 20.12-6.41 20.56-7.42 20.56-8.59L20.56-8.59ZM20.56-25.56L20.56-26.39Q20.56-27.56 20.12-28.58 19.68-29.59 18.91-30.36 18.14-31.13 17.13-31.57 16.11-32.01 14.94-32.01L14.94-32.01 7.15-32.01 7.15-19.95 14.94-19.95Q16.11-19.95 17.13-20.39 18.14-20.83 18.91-21.59 19.68-22.36 20.12-23.38 20.56-24.39 20.56-25.56L20.56-25.56ZM58.82 0L57.82 0 56.16-2.54Q55.13-1.15 53.6-0.33 52.06 0.49 50.23 0.49L50.23 0.49 49.47 0.49Q47.96 0.49 46.61-0.09 45.27-0.66 44.27-1.66 43.27-2.66 42.69-4 42.12-5.35 42.12-6.86L42.12-6.86 42.12-25 45.12-25 45.12-6.69Q45.12-5.79 45.47-4.99 45.81-4.2 46.39-3.61 46.98-3.03 47.77-2.69 48.57-2.34 49.47-2.34L49.47-2.34 51.47-2.34Q52.38-2.34 53.17-2.69 53.96-3.03 54.55-3.61 55.13-4.2 55.48-4.99 55.82-5.79 55.82-6.69L55.82-6.69 55.82-25 58.82-25 58.82 0ZM94.94-25L82.29 10.01 79.38 10.01 83.83-2.15 75.72-25 78.72-25 85.24-6.05 85.34-4.76 85.44-6.05 91.93-25 94.94-25ZM140.51-31.01L137.01-31.01 137.01-35.01 140.51-35.01 140.51-31.01ZM140.26 0L137.26 0 137.26-25 140.26-25 140.26 0ZM172.52 0L169.79 0Q168.42 0 167.21-0.51 166-1.03 165.11-1.93 164.22-2.83 163.69-4.03 163.17-5.22 163.17-6.59L163.17-6.59 163.17-22.14 158.68-22.14 158.68-25 163.17-25 163.17-31.01 166.17-31.49 166.17-25 172.52-25 172.52-22.14 166.17-22.14 166.17-6.45Q166.17-5.69 166.45-5.04 166.73-4.39 167.22-3.91 167.71-3.42 168.37-3.14 169.03-2.86 169.79-2.86L169.79-2.86 172.52-2.86 172.52 0ZM236.55-9.16L236.55-8.11Q236.55-6.32 235.83-4.76 235.11-3.2 233.9-2.03 232.69-0.85 231.09-0.18 229.49 0.49 227.71 0.49L227.71 0.49 225.19 0.49Q223.41 0.49 221.81-0.18 220.21-0.85 219.01-2.03 217.8-3.2 217.08-4.76 216.36-6.32 216.36-8.11L216.36-8.11 216.36-9.5 219.51-10.01 219.51-8.11Q219.51-6.93 219.98-5.92 220.46-4.91 221.26-4.14 222.07-3.37 223.13-2.93 224.19-2.49 225.37-2.49L225.37-2.49 227.56-2.49Q228.73-2.49 229.78-2.93 230.83-3.37 231.64-4.14 232.45-4.91 232.92-5.92 233.4-6.93 233.4-8.11L233.4-8.11 233.4-9.16Q233.4-10.96 232.69-12.16 231.98-13.35 230.81-14.2 229.64-15.04 228.16-15.63 226.68-16.21 225.12-16.8 223.56-17.38 222.08-18.09 220.6-18.8 219.43-19.86 218.26-20.92 217.55-22.46 216.85-24 216.85-26.25L216.85-26.25 216.85-26.9Q216.85-28.69 217.52-30.25 218.19-31.81 219.36-32.98 220.53-34.16 222.11-34.83 223.68-35.5 225.46-35.5L225.46-35.5 227.71-35.5Q229.49-35.5 231.05-34.83 232.62-34.16 233.79-32.98 234.96-31.81 235.63-30.25 236.3-28.69 236.3-26.9L236.3-26.9 236.3-26 233.15-25.49 233.15-26.9Q233.15-28.08 232.71-29.09 232.27-30.1 231.52-30.86 230.76-31.62 229.75-32.06 228.73-32.5 227.56-32.5L227.56-32.5 225.61-32.5Q224.44-32.5 223.42-32.06 222.41-31.62 221.64-30.86 220.87-30.1 220.43-29.09 219.99-28.08 219.99-26.9L219.99-26.9 219.99-26.25Q219.99-24.56 220.7-23.41 221.41-22.27 222.58-21.45 223.75-20.63 225.23-20.03 226.71-19.43 228.27-18.81 229.83-18.19 231.31-17.44 232.79-16.7 233.96-15.61 235.13-14.53 235.84-12.96 236.55-11.4 236.55-9.16L236.55-9.16ZM272.42-6.86L272.42-6.86Q272.42-5.35 271.84-4 271.27-2.66 270.27-1.66 269.27-0.66 267.93-0.09 266.58 0.49 265.07 0.49L265.07 0.49 263.07 0.49Q261.55 0.49 260.21-0.09 258.87-0.66 257.87-1.66 256.87-2.66 256.29-4 255.72-5.35 255.72-6.86L255.72-6.86 255.72-18.14Q255.72-19.65 256.29-21 256.87-22.34 257.87-23.34 258.87-24.34 260.21-24.91 261.55-25.49 263.07-25.49L263.07-25.49 265.07-25.49Q266.58-25.49 267.93-24.91 269.27-24.34 270.27-23.34 271.27-22.34 271.84-21 272.42-19.65 272.42-18.14L272.42-18.14 272.42-12.26 258.72-12.26 258.72-6.69Q258.72-5.79 259.06-4.99 259.41-4.2 259.99-3.61 260.58-3.03 261.37-2.69 262.16-2.34 263.07-2.34L263.07-2.34 265.07-2.34Q265.97-2.34 266.77-2.69 267.56-3.03 268.15-3.61 268.73-4.2 269.07-4.99 269.42-5.79 269.42-6.69L269.42-6.69 269.42-8.35 272.42-7.86 272.42-6.86ZM269.42-14.6L269.42-18.31Q269.42-19.21 269.07-20.01 268.73-20.8 268.15-21.39 267.56-21.97 266.77-22.31 265.97-22.66 265.07-22.66L265.07-22.66 263.07-22.66Q262.16-22.66 261.37-22.31 260.58-21.97 259.99-21.39 259.41-20.8 259.06-20.01 258.72-19.21 258.72-18.31L258.72-18.31 258.72-14.6 269.42-14.6ZM295.84 0L292.84 0 292.84-35.01 295.84-35.01 295.84 0ZM320.26 0L317.26 0 317.26-35.01 320.26-35.01 320.26 0ZM369.83-31.01L366.34-31.01 366.34-35.01 369.83-35.01 369.83-31.01ZM369.59 0L366.59 0 366.59-25 369.59-25 369.59 0ZM401.85 0L399.11 0Q397.75 0 396.54-0.51 395.33-1.03 394.44-1.93 393.55-2.83 393.02-4.03 392.5-5.22 392.5-6.59L392.5-6.59 392.5-22.14 388-22.14 388-25 392.5-25 392.5-31.01 395.5-31.49 395.5-25 401.85-25 401.85-22.14 395.5-22.14 395.5-6.45Q395.5-5.69 395.78-5.04 396.06-4.39 396.55-3.91 397.04-3.42 397.7-3.14 398.36-2.86 399.11-2.86L399.11-2.86 401.85-2.86 401.85 0Z" opacity="1" transform="matrix(1,0,0,1,0,0)" fill="#375a82" class="slogan-text-1" data-fill-palette-color="secondary" id="text-1"></path></svg></g></svg></g></svg></g></svg></g><g></g></svg></g><defs></defs></svg><rect width="395.52" height="177.10342972162965" fill="none" stroke="none" visibility="hidden"></rect></g></svg></g></svg>