<svg xmlns="http://www.w3.org/2000/svg" version="1.1" xmlns:xlink="http://www.w3.org/1999/xlink" xmlns:svgjs="http://svgjs.dev/svgjs" width="1500" height="1500" viewBox="0 0 1500 1500"><rect width="1500" height="1500" fill="#e9e2da"></rect><g transform="matrix(0.6666666666666666,0,0,0.6666666666666666,249.50000000000006,249.50000000000006)"><svg viewBox="0 0 280 280" data-background-color="#e9e2da" preserveAspectRatio="xMidYMid meet" height="1500" width="1500" xmlns="http://www.w3.org/2000/svg" xmlns:xlink="http://www.w3.org/1999/xlink"><g id="tight-bounds" transform="matrix(1,0,0,1,0.13999999999998636,0.13999999999998636)"><svg viewBox="0 0 279.72 279.72" height="279.72" width="279.72"><g><svg viewBox="0 0 279.72 279.72" height="279.72" width="279.72"><g><svg viewBox="0 0 279.72 279.72" height="279.72" width="279.72"><g id="textblocktransform"><svg viewBox="0 0 279.72 279.72" height="279.72" width="279.72" id="textblock"><g><svg viewBox="0 0 279.72 279.72" height="279.72" width="279.72"><g transform="matrix(1,0,0,1,57.446704652707865,57.446704652707865)"><svg viewBox="0 0 164.8265906945843 164.8265906945843" height="164.8265906945843" width="164.8265906945843"><g id="icon-0"><circle r="82" cx="82.41329534729215" cy="82.41329534729215" fill="#1b2141" data-fill-palette-color="accent"></circle><svg xmlns="http://www.w3.org/2000/svg" xmlns:xlink="http://www.w3.org/1999/xlink" version="1.1" x="24.72398860418764" y="24.723988604187646" viewBox="5 19.82 90 60.36000000000001" enable-background="new 0 0 100 100" xml:space="preserve" height="115.378613486209" width="115.378613486209" class="icon-jxe-0" data-fill-palette-color="quaternary" id="jxe-0"><path fill="#e9e2da" d="M58.808 35.669C57.188 24.764 46.209 19.82 33.018 19.82H32.234C18.424 19.82 5.759 27.966 5 39.971H8.617C9.818 30.056 20.719 23.717 32.286 23.717H32.965C43.939 23.717 53.162 26.967 55.107 35.764L14.429 36.811V77.414L95 80.18V34.737zM90.505 77.916L18.924 75.148V39.077L90.505 37.002z" data-fill-palette-color="quaternary"></path><path fill="#e9e2da" d="M54.065 71.18A1.904 1.904 0 0 1 52.1 73.022L46.229 72.833A1.905 1.905 0 0 1 44.388 70.868 1.903 1.903 0 0 1 46.353 69.026L52.223 69.215A1.904 1.904 0 0 1 54.065 71.18" data-fill-palette-color="quaternary"></path><path fill="#e9e2da" d="M65.04 71.535A1.904 1.904 0 0 1 63.075 73.377L57.204 73.188A1.905 1.905 0 0 1 55.362 71.223 1.906 1.906 0 0 1 57.328 69.381L63.198 69.572A1.9 1.9 0 0 1 65.04 71.535" data-fill-palette-color="quaternary"></path><path fill="#e9e2da" d="M85.008 46.297A5.592 5.592 0 1 0 75.241 51.747 5.592 5.592 0 0 0 85.008 46.297M80.124 46.569C80.231 46.005 80.316 45.431 80.382 44.85A5.58 5.58 0 0 1 83.944 47.553C84.208 48.026 84.39 48.52 84.506 49.021A8.5 8.5 0 0 0 80.124 46.569" data-fill-palette-color="quaternary"></path><path fill="#e9e2da" d="M82.529 59.475A4.17 4.17 0 0 0 76.855 57.866 4.17 4.17 0 0 0 75.245 63.54 4.17 4.17 0 0 0 82.529 59.475M79.232 59.572C79.302 59.205 79.357 58.834 79.4 58.457A3.61 3.61 0 0 1 82.072 61.16 5.5 5.5 0 0 0 79.232 59.572" data-fill-palette-color="quaternary"></path><path fill="#e9e2da" d="M72.824 54.846A4.6 4.6 0 0 0 66.564 53.069 4.6 4.6 0 0 0 64.787 59.329 4.6 4.6 0 0 0 71.047 61.106 4.6 4.6 0 0 0 72.824 54.846M68.947 54.957C69.033 54.504 69.101 54.045 69.154 53.58A4.46 4.46 0 0 1 72.458 56.922 6.8 6.8 0 0 0 68.947 54.957" data-fill-palette-color="quaternary"></path><path fill="#e9e2da" d="M34.844 53.297L35.026 47.586 28.645 48.194 28.559 53.711 23.032 54.074V60.152L28.463 59.98 28.378 65.498H34.456L34.638 59.787 40.07 59.617 40.374 52.931zM34.197 51.697L33.226 52.484 33.326 49.339 31.326 49.529 32.528 48.554 34.302 48.385z" data-fill-palette-color="quaternary"></path></svg></g></svg></g><g id="text-0"><path d="M36.848 92.536v0c0.15-0.417 0.096-0.822-0.162-1.214-0.252-0.39-0.624-0.674-1.117-0.852-0.493-0.177-0.962-0.3-1.409-0.367v0l0.157-0.853c0.462 0.045 0.945 0.158 1.451 0.34v0c1.011 0.364 1.702 0.951 2.073 1.762 0.369 0.818 0.382 1.703 0.039 2.657v0c-0.857 2.381-2.728 3.052-5.614 2.014-2.886-1.038-5.142-1.44-6.768-1.204-1.621 0.244-2.835 1.487-3.642 3.729v0l-0.984 2.738 10.894 3.919c0.392 0.141 0.658 0.015 0.799-0.376v0l1.015-2.823 0.758 0.273-3.391 9.426-0.757-0.273 0.712-1.98c0.141-0.392 0.015-0.658-0.376-0.798v0l-23.893-8.595c-0.335-0.12-0.573 0.015-0.713 0.407v0l-0.712 1.98-0.758-0.273 3.769-10.478c0.847-2.356 2.213-4.129 4.097-5.32 1.884-1.191 3.905-1.398 6.065-0.622v0c1.737 0.625 3.008 1.692 3.813 3.202 0.805 1.509 1.114 3.229 0.926 5.158v0c1.385-1.749 3.046-2.578 4.982-2.487v0c1.577 0.097 3.348 0.498 5.313 1.204 1.964 0.707 3.109 0.608 3.433-0.294zM9.319 92.326v0l-1.531 4.254 11.861 4.267 1.531-4.254c0.604-1.68 0.488-3.202-0.348-4.565-0.843-1.366-2.063-2.336-3.661-2.912-1.598-0.575-3.153-0.603-4.666-0.084-1.52 0.516-2.582 1.614-3.186 3.294z" fill="#1b2141" data-fill-palette-color="primary"></path><path d="M38.201 55.431v0c1.273-1.62 2.815-2.474 4.626-2.562 1.815-0.093 3.764 0.679 5.849 2.318v0c0.422 0.332 0.873 0.725 1.353 1.178v0l-7.541 9.594 0.246 0.193c2.227 1.75 4.296 2.724 6.207 2.92 1.912 0.196 3.369-0.344 4.373-1.621 1.004-1.277 1.499-2.586 1.487-3.928-0.011-1.332-0.506-2.63-1.485-3.895v0l0.665-0.553c1.21 1.404 1.812 2.918 1.807 4.545-0.011 1.622-0.533 3.09-1.566 4.403v0c-1.601 2.037-3.645 3.166-6.133 3.388-2.482 0.226-4.961-0.634-7.436-2.579-2.47-1.941-3.892-4.156-4.267-6.644-0.371-2.494 0.234-4.746 1.815-6.757zM45.577 56.669v0c-2.881-2.265-5.17-2.318-6.867-0.159v0c-0.846 1.077-0.982 2.455-0.408 4.136 0.57 1.686 1.739 3.262 3.507 4.728v0l5.555-7.069c-0.722-0.721-1.318-1.266-1.787-1.636z" fill="#1b2141" data-fill-palette-color="primary"></path><path d="M82.115 27.716v0l6.311 9.863c0.192 0.3 0.463 0.337 0.813 0.113v0l1.773-1.134 0.434 0.679-6.776 4.335-0.434-0.678 1.238-0.793c0.351-0.224 0.43-0.486 0.238-0.785v0l-6.625-10.355c-0.821-1.283-1.71-2.05-2.666-2.299-0.96-0.255-1.903-0.085-2.83 0.508v0c-1.306 0.836-1.892 2.298-1.759 4.388 0.134 2.09 1.125 4.579 2.974 7.469v0l3.25 5.079c0.224 0.351 0.512 0.414 0.862 0.19v0l1.247-0.798 0.434 0.679-6.776 4.335-0.434-0.678 1.764-1.129c0.356-0.228 0.438-0.492 0.247-0.791v0l-8.915-13.934c-0.224-0.351-0.515-0.412-0.871-0.184v0l-1.764 1.129-0.434-0.679 1.84-1.177c1.51-0.966 2.515-1.717 3.017-2.253v0l3.277 5.122c-1.425-4.108-0.682-7.094 2.23-8.956v0c1.306-0.836 2.712-1.074 4.217-0.714 1.509 0.365 2.882 1.515 4.118 3.448z" fill="#1b2141" data-fill-palette-color="primary"></path><path d="M108.74 5.627v0l0.643-0.169 1.208 4.586 4.323-1.139 0.205 0.779-4.323 1.139 3.859 14.652c0.41 1.558 1.05 2.222 1.921 1.993v0c0.402-0.106 0.703-0.387 0.902-0.842 0.206-0.457 0.245-0.929 0.117-1.415-0.13-0.493-0.293-0.943-0.491-1.349v0l0.782-0.352c0.231 0.404 0.415 0.866 0.552 1.385v0c0.274 1.038 0.178 1.942-0.286 2.71-0.458 0.766-1.193 1.282-2.205 1.549-1.006 0.265-1.935 0.072-2.786-0.578-0.847-0.658-1.486-1.809-1.919-3.451v0l-3.393-12.881c-0.106-0.402-0.363-0.55-0.772-0.442v0l-2.025 0.534-0.205-0.779 2.112-0.557c0.922-0.243 1.515-2.034 1.781-5.373z" fill="#1b2141" data-fill-palette-color="primary"></path><path d="M171.081 27.21v0l7.254-25.079c0.116-0.4-0.026-0.657-0.426-0.773v0l-2.022-0.584 0.224-0.774 2.109 0.61c1.715 0.496 2.943 0.757 3.683 0.782v0l-7.752 26.8c-0.099 0.342 0.052 0.57 0.451 0.686v0l2.022 0.585-0.224 0.773-8.337-2.411 0.224-0.774 2.021 0.585c0.4 0.116 0.657-0.026 0.773-0.426zM184.675 13.366l0.224-0.773 5.754 1.664-0.223 0.774-1.596-0.462c-0.226-0.065-0.525 0.002-0.897 0.202v0l-7.359 4.715 3.958 11.898c0.077 0.267 0.244 0.437 0.502 0.512v0l1.76 0.509-0.224 0.774-2.021-0.584c-1.373-0.397-2.43-0.609-3.171-0.635v0l-3.971-11.996 9.45-5.965z" fill="#1b2141" data-fill-palette-color="primary"></path><path d="M217.771 39.387l0.225-0.333 0.909-1.269 0.876-1.292c1.958-2.889 2.001-4.968 0.128-6.237v0c-0.817-0.554-1.641-0.707-2.473-0.46-0.832 0.247-1.499 0.74-2 1.478-0.501 0.739-0.836 1.449-1.004 2.129v0c-0.675 0.086-1.381-0.121-2.121-0.622-0.739-0.501-0.698-1.357 0.123-2.568 0.817-1.206 1.985-1.906 3.504-2.101 1.519-0.195 3.153 0.3 4.903 1.486v0c3.428 2.323 3.772 5.507 1.031 9.552v0l-5.14 7.585c-0.904 1.334-0.986 2.251-0.247 2.751v0c0.344 0.233 0.757 0.278 1.236 0.132 0.48-0.145 0.861-0.426 1.143-0.843 0.286-0.422 0.515-0.843 0.685-1.262v0l0.788 0.363c-0.158 0.436-0.387 0.877-0.689 1.321v0c-0.602 0.889-1.343 1.413-2.221 1.572-0.884 0.155-1.756-0.059-2.617-0.642-0.861-0.584-1.327-1.41-1.397-2.479-0.066-1.075 0.377-2.315 1.33-3.721v0l0.451-0.667c-1.554 1.396-3.054 2.179-4.499 2.351-1.451 0.168-2.775-0.153-3.969-0.963-1.195-0.81-1.902-1.836-2.122-3.079-0.216-1.249 0.098-2.496 0.942-3.74 0.843-1.245 2.172-1.961 3.987-2.151 1.824-0.191 3.822 0.45 5.995 1.922v0c0.467 0.316 1.214 0.912 2.243 1.787zM208.508 43.813v0c1.033 0.7 2.361 0.745 3.984 0.133 1.622-0.611 3.225-1.929 4.808-3.953v0c-0.226-0.193-0.561-0.441-1.006-0.743v0c-1.972-1.337-3.664-1.879-5.075-1.627-1.411 0.252-2.484 0.919-3.218 2.003v0c-0.486 0.717-0.695 1.475-0.629 2.274 0.063 0.805 0.441 1.442 1.136 1.913z" fill="#1b2141" data-fill-palette-color="primary"></path><path d="M254.513 62.255c0.716 0.914 0.914 1.961 0.594 3.142-0.325 1.184-1.074 2.236-2.247 3.155-1.173 0.919-2.138 0.895-2.896-0.071v0c-0.439-0.56-0.62-1.156-0.543-1.787v0c0.922-0.228 1.734-0.617 2.436-1.168v0c1.241-0.973 1.459-1.975 0.651-3.005v0c-0.683-0.872-2.007-1.075-3.97-0.61-1.968 0.459-4.323 1.763-7.065 3.912v0l-4.683 3.67c-0.328 0.257-0.363 0.549-0.107 0.877v0l1.851 2.361-0.634 0.497-5.9-7.528 0.634-0.497 1.292 1.648c0.261 0.333 0.555 0.371 0.883 0.115v0l12.948-10.148c0.328-0.257 0.361-0.551 0.1-0.884v0l-1.292-1.649 0.634-0.497 1.348 1.72c1.105 1.411 1.949 2.34 2.53 2.788v0l-4.509 3.534c1.916-0.896 3.54-1.278 4.872-1.145 1.332 0.133 2.356 0.656 3.073 1.57z" fill="#1b2141" data-fill-palette-color="primary"></path><path d="M253.233 96.133c1.117-2.192 3.158-3.84 6.12-4.943 2.963-1.103 5.587-1.192 7.873-0.267 2.281 0.934 3.889 2.656 4.823 5.166 0.937 2.516 0.85 4.88-0.26 7.09-1.117 2.214-3.156 3.872-6.119 4.975-2.963 1.103-5.587 1.181-7.873 0.235-2.292-0.944-3.907-2.674-4.844-5.19-0.934-2.51-0.841-4.865 0.28-7.066zM267.402 93.532c-1.922-0.43-4.21-0.151-6.865 0.838-2.654 0.988-4.568 2.274-5.74 3.856-1.179 1.585-1.489 3.129-0.929 4.632 0.562 1.51 1.81 2.485 3.743 2.925 1.927 0.443 4.217 0.17 6.871-0.818 2.654-0.988 4.566-2.28 5.734-3.875 1.174-1.597 1.48-3.151 0.918-4.661-0.56-1.503-1.804-2.469-3.732-2.897z" fill="#1b2141" data-fill-palette-color="primary"></path><path d="M13.585 142.768c0-1.85 1.5-3.351 3.35-3.351 1.85 0 3.351 1.5 3.351 3.351 0 1.85-1.5 3.351-3.351 3.35-1.85 0-3.351-1.5-3.35-3.35z" fill="#1b2141" data-fill-palette-color="primary"></path><path d="M267.048 142.768c0-1.85 1.5-3.351 3.351-3.351 1.85 0 3.351 1.5 3.35 3.351 0 1.85-1.5 3.351-3.35 3.35-1.85 0-3.351-1.5-3.351-3.35z" fill="#1b2141" data-fill-palette-color="primary"></path></g><g id="text-1"><path d="M15.937 192.024l-4.022-11.328 0.787-0.28 0.731 2.059c0.146 0.411 0.393 0.555 0.741 0.432v0l24.934-8.854c0.348-0.124 0.449-0.391 0.302-0.802v0l-0.731-2.058 0.788-0.28 3.635 10.237c0.777 2.188 0.844 4.273 0.201 6.254-0.641 1.987-1.91 3.317-3.807 3.99v0c-1.455 0.517-2.866 0.583-4.235 0.2-1.368-0.383-2.555-1.119-3.562-2.207v0c0.24 1.98-0.062 3.768-0.905 5.364-0.844 1.596-2.309 2.764-4.396 3.505-2.081 0.739-4.129 0.497-6.144-0.724-2.009-1.224-3.448-3.06-4.317-5.508zM29.901 186.82v0l-1.725-4.858-12.817 4.552 1.725 4.857c0.622 1.752 1.748 2.887 3.377 3.406 1.632 0.524 3.308 0.481 5.029-0.13 1.72-0.611 3.039-1.631 3.956-3.061 0.925-1.425 1.077-3.014 0.455-4.766zM41.551 180.664v0l-1.088-3.064-11.195 3.975 1.182 3.33c0.611 1.72 1.648 2.795 3.11 3.223 1.471 0.432 2.985 0.372 4.541-0.181 1.562-0.555 2.691-1.447 3.387-2.677 0.696-1.23 0.717-2.765 0.063-4.606z" fill="#1b2141" data-fill-palette-color="primary"></path><path d="M52.701 216.479v0l-15.561 10.616c-0.36 0.246-0.418 0.549-0.172 0.91v0l1.226 1.796-0.691 0.471-1.276-1.871c-1.048-1.536-1.859-2.559-2.435-3.068v0l5.182-3.535c-4.194 1.594-7.303 0.908-9.327-2.059v0c-0.908-1.331-1.196-2.783-0.865-4.358 0.326-1.571 1.473-3.028 3.441-4.371v0l9.972-6.803c0.355-0.242 0.411-0.541 0.169-0.895v0l-1.231-1.805 0.69-0.471 1.283 1.879c1.048 1.536 1.857 2.556 2.428 3.06v0l-11.926 8.137c-1.303 0.889-2.071 1.835-2.304 2.839-0.233 1.004-0.028 1.977 0.615 2.92v0c0.927 1.358 2.508 1.901 4.742 1.628 2.229-0.27 4.891-1.46 7.985-3.571v0l4.715-3.217c0.355-0.242 0.411-0.541 0.17-0.895v0l-1.232-1.805 0.691-0.471 1.282 1.88c1.048 1.536 1.857 2.556 2.429 3.059z" fill="#1b2141" data-fill-palette-color="primary"></path><path d="M68.861 234.155l0.551-0.628 4.426 3.885-0.551 0.628-1.286-1.129c-0.212-0.186-0.517-0.168-0.917 0.053v0l-20.204 10.852c-0.257 0.15-0.649 0.363-1.179 0.641v0l-1.209 0.599c-0.257 0.15-0.613 0.342-1.068 0.576-0.455 0.244-0.817 0.422-1.086 0.534-0.263 0.117-0.588 0.252-0.972 0.406v0c-0.471 0.211-0.996 0.341-1.573 0.388-0.577 0.047-1.027-0.071-1.35-0.355-0.328-0.288-0.492-0.793-0.491-1.516-0.009-0.722 0.157-1.349 0.498-1.88v0c2.911 0.957 5.68 0.713 8.307-0.733v0l1.998-1.086 6.995-18.376c0.167-0.425 0.145-0.73-0.067-0.916v0l-1.286-1.129 0.551-0.628 5.932 5.207-0.551 0.628-1.748-1.534-5.661 14.537 13.719-7.463z" fill="#1b2141" data-fill-palette-color="primary"></path><path d="M93.319 269.314v0l6.397-15.831c0.161-0.398 0.039-0.679-0.365-0.843v0l-2.026-0.818 0.313-0.775 2.11 0.852c1.724 0.697 2.963 1.096 3.718 1.199v0l-7.095 17.558c-0.138 0.342-0.005 0.595 0.4 0.759v0l2.025 0.818-0.313 0.775-8.354-3.376 0.313-0.774 2.025 0.818c0.405 0.163 0.688 0.043 0.852-0.362zM102.297 247.391c-0.23-0.542-0.229-1.099 0.002-1.671 0.231-0.573 0.619-0.977 1.163-1.213 0.542-0.23 1.102-0.228 1.681 0.006 0.573 0.231 0.974 0.618 1.203 1.159 0.227 0.548 0.225 1.108-0.005 1.681-0.231 0.573-0.618 0.974-1.16 1.204-0.544 0.236-1.103 0.239-1.675 0.007-0.579-0.234-0.982-0.625-1.209-1.173z" fill="#1b2141" data-fill-palette-color="primary"></path><path d="M121.421 253.275v0l0.679 0.144-1.02 4.816 4.54 0.963-0.173 0.817-4.54-0.962-3.26 15.385c-0.346 1.635-0.063 2.549 0.849 2.742v0c0.42 0.089 0.83-0.03 1.229-0.357 0.405-0.326 0.662-0.745 0.77-1.257 0.109-0.512 0.166-1.008 0.171-1.487v0l0.894 0.056c0.022 0.478-0.024 0.99-0.14 1.534v0c-0.231 1.09-0.739 1.885-1.524 2.384-0.784 0.493-1.704 0.627-2.761 0.403-1.064-0.225-1.836-0.838-2.317-1.839-0.487-1.002-0.548-2.367-0.182-4.094v0l2.867-13.533c0.089-0.42-0.077-0.675-0.497-0.763v0l-2.137-0.453 0.173-0.818 2.226 0.472c0.972 0.206 2.356-1.178 4.153-4.153z" fill="#1b2141" data-fill-palette-color="primary"></path><path d="M166.645 278.866v0c-2.017 0.311-4.118 0.072-6.305-0.719v0c-0.728-0.227-1.214-0.322-1.459-0.284v0c-0.458 0.071-0.651 0.426-0.579 1.067v0l0.05 0.655-0.876 0.135-1.182-7.662 0.826-0.127c0.642 2.312 1.788 3.911 3.44 4.797 1.659 0.892 3.506 1.181 5.543 0.867 2.03-0.313 3.487-1.102 4.372-2.366 0.885-1.264 1.212-2.645 0.98-4.144v0c-0.368-2.388-2.023-3.98-4.964-4.776v0l-5.827-1.587c-1.765-0.482-3.16-1.292-4.185-2.431-1.019-1.147-1.642-2.453-1.868-3.919v0c-0.344-2.229 0.11-4.262 1.362-6.098 1.252-1.837 3.284-2.972 6.096-3.406v0c1.652-0.255 3.432 0.034 5.339 0.868v0c0.635 0.242 1.058 0.346 1.271 0.313v0c0.398-0.061 0.564-0.413 0.499-1.055v0l-0.103-0.932 0.876-0.135 1.225 7.941-0.826 0.127c-0.609-2.317-1.632-3.935-3.071-4.854-1.44-0.926-3.072-1.248-4.897-0.966-1.818 0.28-3.147 0.995-3.988 2.143-0.842 1.149-1.165 2.356-0.969 3.623 0.196 1.274 0.717 2.361 1.562 3.264 0.845 0.902 1.986 1.538 3.422 1.906v0l5.878 1.59c1.958 0.54 3.507 1.405 4.648 2.593 1.14 1.182 1.828 2.54 2.065 4.073v0c0.335 2.169-0.248 4.184-1.747 6.045-1.5 1.855-3.703 3.006-6.608 3.454z" fill="#1b2141" data-fill-palette-color="primary"></path><path d="M191.126 249.611v0c1.97-0.822 3.799-0.814 5.486 0.024 1.688 0.838 3.063 2.529 4.125 5.075v0c0.215 0.514 0.424 1.096 0.63 1.744v0l-11.689 4.877 0.124 0.298c1.132 2.713 2.515 4.642 4.148 5.785 1.636 1.15 3.232 1.401 4.787 0.752 1.555-0.649 2.667-1.582 3.337-2.799 0.664-1.215 0.872-2.644 0.623-4.286v0l0.878-0.17c0.386 1.883 0.165 3.56-0.66 5.032-0.828 1.466-2.042 2.532-3.64 3.199v0c-2.49 1.039-4.919 1.031-7.287-0.025-2.368-1.056-4.18-3.089-5.436-6.1-1.259-3.017-1.424-5.748-0.495-8.193 0.92-2.449 2.609-4.187 5.069-5.213zM197.173 254.484v0c-1.465-3.512-3.511-4.72-6.137-3.625v0c-1.313 0.548-2.137 1.728-2.472 3.541-0.326 1.816-0.061 3.836 0.794 6.061v0l8.614-3.594c-0.294-1.019-0.56-1.814-0.799-2.383z" fill="#1b2141" data-fill-palette-color="primary"></path><path d="M219.503 255.797v0l-15.211-22.42c-0.245-0.361-0.545-0.421-0.901-0.179v0l-1.808 1.226-0.469-0.691 1.883-1.278c1.539-1.044 2.56-1.851 3.066-2.421v0l16.206 23.886c0.245 0.361 0.548 0.419 0.909 0.174v0l1.808-1.226 0.469 0.691-7.456 5.059-0.469-0.691 1.808-1.227c0.355-0.241 0.411-0.542 0.165-0.903z" fill="#1b2141" data-fill-palette-color="primary"></path><path d="M236.651 242.063v0l-18.638-19.662c-0.3-0.317-0.606-0.327-0.918-0.032v0l-1.586 1.503-0.575-0.606 1.652-1.566c1.349-1.279 2.227-2.241 2.634-2.885v0l19.857 20.949c0.3 0.317 0.609 0.325 0.925 0.025v0l1.586-1.503 0.575 0.606-6.54 6.199-0.575-0.606 1.586-1.503c0.312-0.296 0.318-0.602 0.017-0.919z" fill="#1b2141" data-fill-palette-color="primary"></path><path d="M263.455 206.804v0l-15.074-8.021c-0.379-0.202-0.671-0.11-0.877 0.276v0l-1.026 1.928-0.738-0.392 1.069-2.009c0.873-1.641 1.4-2.832 1.581-3.572v0l16.719 8.895c0.326 0.173 0.591 0.068 0.796-0.318v0l1.027-1.928 0.737 0.392-4.232 7.955-0.738-0.392 1.026-1.929c0.205-0.385 0.115-0.68-0.27-0.885zM242.593 195.579c-0.563 0.172-1.117 0.113-1.662-0.177-0.545-0.29-0.907-0.718-1.084-1.284-0.172-0.563-0.111-1.12 0.181-1.671 0.29-0.545 0.716-0.904 1.28-1.076 0.569-0.169 1.126-0.108 1.671 0.182 0.545 0.29 0.904 0.716 1.075 1.279 0.178 0.566 0.122 1.122-0.168 1.667-0.293 0.551-0.724 0.911-1.293 1.08z" fill="#1b2141" data-fill-palette-color="primary"></path><path d="M250.454 177.173v0l0.214-0.66 4.683 1.521 1.434-4.415 0.794 0.259-1.433 4.414 14.956 4.858c1.59 0.516 2.528 0.331 2.817-0.556v0c0.133-0.409 0.057-0.828-0.226-1.259-0.281-0.437-0.671-0.737-1.169-0.899-0.498-0.162-0.985-0.271-1.461-0.326v0l0.149-0.883c0.478 0.028 0.982 0.128 1.512 0.3v0c1.06 0.344 1.796 0.933 2.21 1.766 0.408 0.831 0.444 1.76 0.111 2.788-0.336 1.034-1.027 1.738-2.073 2.111-1.048 0.379-2.411 0.297-4.09-0.248v0l-13.156-4.274c-0.409-0.133-0.679 0.005-0.812 0.414v0l-0.675 2.078-0.795-0.259 0.703-2.164c0.307-0.945-0.924-2.467-3.693-4.566z" fill="#1b2141" data-fill-palette-color="primary"></path></g></svg></g></svg></g></svg></g></svg></g><defs></defs></svg><rect width="279.72" height="279.72" fill="none" stroke="none" visibility="hidden"></rect></g></svg></g></svg>